<?xml version="1.0" encoding="utf-8"?>
<!-- Generator: Adobe Illustrator 15.1.0, SVG Export Plug-In . SVG Version: 6.00 Build 0)  -->
<!DOCTYPE svg PUBLIC "-//W3C//DTD SVG 1.1//EN" "http://www.w3.org/Graphics/SVG/1.1/DTD/svg11.dtd">
<svg version="1.1" id="Ebene_1" xmlns="http://www.w3.org/2000/svg" xmlns:xlink="http://www.w3.org/1999/xlink" x="0px" y="0px"
	 width="100px" height="100px" viewBox="0 0 100 100" enable-background="new 0 0 100 100" xml:space="preserve">
<g>
	<path d="M26.413,58.47l-0.221,1.309l-0.238,0.068c-0.68-0.521-1.395-0.782-2.143-0.782c-0.42,0-0.785,0.085-1.096,0.255
		c-0.312,0.17-0.551,0.391-0.715,0.663s-0.246,0.556-0.246,0.85c0,0.307,0.094,0.576,0.281,0.808
		c0.186,0.232,0.422,0.434,0.705,0.604s0.668,0.374,1.156,0.612c0.611,0.283,1.104,0.547,1.479,0.79
		c0.373,0.244,0.693,0.553,0.961,0.927c0.266,0.374,0.398,0.827,0.398,1.36c0,0.566-0.152,1.088-0.459,1.563
		c-0.305,0.477-0.736,0.856-1.291,1.14c-0.557,0.283-1.191,0.425-1.904,0.425c-1.043,0-2.018-0.255-2.924-0.766l0.17-1.394
		l0.188-0.085c0.396,0.386,0.834,0.672,1.316,0.858c0.482,0.188,0.943,0.28,1.387,0.28c0.43,0,0.812-0.085,1.146-0.255
		s0.59-0.396,0.766-0.68s0.264-0.584,0.264-0.901c0-0.476-0.182-0.858-0.545-1.147s-0.912-0.604-1.648-0.943
		c-0.602-0.295-1.082-0.558-1.445-0.79s-0.674-0.533-0.936-0.901c-0.26-0.368-0.391-0.818-0.391-1.352
		c0-0.555,0.15-1.065,0.451-1.53c0.299-0.464,0.719-0.83,1.258-1.096c0.537-0.267,1.152-0.4,1.844-0.4
		C24.765,57.959,25.573,58.13,26.413,58.47z"/>
	<path d="M35.524,58.852c0.578,0.55,0.867,1.341,0.867,2.372c0,1.213-0.361,2.165-1.08,2.855c-0.721,0.691-1.715,1.037-2.984,1.037
		h-1.291v0.425l0.068,3.4h-1.377l0.084-3.281l-0.084-7.616l3.332-0.017C34.124,58.027,34.946,58.303,35.524,58.852z M34.997,61.343
		c0-1.405-0.748-2.137-2.244-2.193L31.104,59.2l-0.051,4.777l1.785,0.034C34.276,63.785,34.997,62.896,34.997,61.343z"/>
	<path d="M46.634,59.319c0.799,0.918,1.199,2.238,1.199,3.961c0,1.848-0.426,3.275-1.275,4.284s-2.057,1.513-3.621,1.513
		c-1.473,0-2.613-0.476-3.418-1.428s-1.205-2.307-1.205-4.063c0-1.812,0.422-3.207,1.266-4.182s2.055-1.462,3.629-1.462
		C44.692,57.942,45.835,58.401,46.634,59.319z M39.706,63.416c0,3.016,1.105,4.522,3.316,4.522c2.266,0,3.398-1.474,3.398-4.42
		c0-1.507-0.273-2.627-0.824-3.357c-0.549-0.731-1.385-1.097-2.508-1.097C40.835,59.064,39.706,60.516,39.706,63.416z"/>
	<path d="M56.333,59.234l-1.904-0.102h-1.105l-0.051,6.408l0.051,3.4h-1.377l0.102-3.281l-0.084-6.527h-1.105l-1.938,0.102
		l-0.086-0.136l0.102-1.055h7.396l0.102,0.137L56.333,59.234z"/>
	<path d="M60.429,68.941h-1.377l0.086-3.281l-0.086-7.616h1.395l-0.086,7.497L60.429,68.941z"/>
	<path d="M65.632,63.009l1.836,0.033l1.768-0.051l0.102,0.136l-0.119,1.037l-1.887-0.051l-1.717,0.018l-0.018,1.41l0.068,3.4h-1.377
		l0.086-3.281l-0.086-7.616h5.797l0.104,0.137l-0.119,1.088l-2.5-0.085l-1.904,0.034L65.632,63.009z"/>
	<path d="M76.103,68.941h-1.377l0.104-3.179l-0.018-0.731l-3.469-6.987h1.463l0.221,0.612l2.381,4.896h0.135l2.602-4.862
		l0.254-0.646h1.445l-3.773,6.987l-0.018,0.731L76.103,68.941z"/>
</g>
<g>
	<path d="M50.001,47.8c-7.45,0-13.512-6.061-13.512-13.51c0-7.45,6.062-13.511,13.512-13.511c7.449,0,13.51,6.061,13.51,13.511
		C63.511,41.739,57.45,47.8,50.001,47.8z M50.001,22.479c-6.514,0-11.812,5.299-11.812,11.812c0,6.512,5.298,11.811,11.812,11.811
		c6.512,0,11.81-5.299,11.81-11.811C61.811,27.777,56.513,22.479,50.001,22.479z"/>
	<path d="M57.658,33.043c-0.136,0-0.273-0.033-0.401-0.102c-7.031-3.771-14.139-1.547-14.211-1.523
		c-0.449,0.144-0.926-0.102-1.07-0.547s0.099-0.925,0.545-1.07c0.316-0.104,7.851-2.481,15.54,1.643
		c0.414,0.222,0.569,0.737,0.348,1.15C58.255,32.88,57.961,33.043,57.658,33.043z"/>
	<path d="M56.2,37.418c-0.136,0-0.272-0.033-0.4-0.102c-5.966-3.198-12.131-1.338-12.191-1.318
		c-0.452,0.134-0.925-0.111-1.064-0.558c-0.141-0.448,0.108-0.924,0.556-1.064c0.277-0.088,6.887-2.103,13.503,1.442
		c0.414,0.222,0.569,0.736,0.348,1.15C56.797,37.255,56.504,37.418,56.2,37.418z"/>
	<path d="M54.783,41.502c-0.127,0-0.255-0.029-0.377-0.089c-5.632-2.789-9.949-1.093-9.992-1.076
		c-0.437,0.179-0.932-0.032-1.108-0.467s0.033-0.931,0.468-1.107c0.204-0.083,5.075-2,11.388,1.127
		c0.421,0.208,0.593,0.719,0.385,1.139C55.397,41.328,55.097,41.502,54.783,41.502z"/>
</g>
</svg>
